#!OML:ASF F:\VICON\USERDATA\INSTALL\rory3\rory3.ASF
:FULLY-SPECIFIED
:DEGREES
907
root 2.14222 17.8622 5.65716 366.894 37.7598 359.849
lowerback 7.53902 3.4164 6.1633
upperback -0.597736 5.32439 3.73605
thorax -4.65407 2.53791 -0.153971
lowerneck -17.7478 7.58081 -5.37668
upperneck 32.7361 14.9296 -3.51725
head 14.1203 5.49749 2.07538
rclavicle 1.70358e-013 3.18055e-014
rhumerus -38.9723 -7.34005 -70.4157
rradius 35.1458
rwrist 23.3577
rhand -21.6717 5.71121
rfingers 7.12502
rthumb 4.72583 -24.2161
lclavicle 1.70358e-013 3.18055e-014
lhumerus -42.8502 19.3997 79.0748
lradius 23.1027
lwrist -13.4437
lhand -7.0257 22.6465
lfingers 7.12502
lthumb 18.8461 51.7535
rfemur -23.8677 -5.31822 23.5069
rtibia 27.7944
rfoot -9.79393 -2.20169
rtoes 25.7113
lfemur -10.2 0.162085 -22.9803
ltibia 37.6166
lfoot 37.7851 -22.2572
ltoes 24.0185
908
root 2.1871 17.8729 5.70127 366.755 37.8987 359.687
lowerback 7.57297 3.35177 6.30726
upperback -0.621711 5.26531 3.86735
thorax -4.70169 2.50593 -0.0938607
lowerneck -17.7555 7.56954 -5.28694
upperneck 32.7636 14.8878 -3.52071
head 14.1418 5.48722 2.05514
rclavicle -8.15017e-014 -1.43125e-014
rhumerus -38.606 -7.47701 -70.2926
rradius 35.5548
rwrist 23.0171
rhand -21.6227 5.73303
rfingers 7.12502
rthumb 4.77308 -24.1932
lclavicle -8.15017e-014 -1.43125e-014
lhumerus -42.7527 18.7129 79.6372
lradius 23.4424
lwrist -13.444
lhand -6.80711 22.4043
lfingers 7.12502
lthumb 19.0563 51.4908
rfemur -23.3748 -5.53164 23.613
rtibia 27.4037
rfoot -9.77136 -2.05604
rtoes 25.9468
lfemur -10.8245 0.835986 -22.7035
ltibia 38.8235
lfoot 37.1813 -23.499
ltoes 18.8876
909
root 2.23002 17.8813 5.74731 366.545 38.0151 359.483
lowerback 7.61831 3.2972 6.43022
upperback -0.610914 5.21707 4.00849
thorax -4.72151 2.48133 -0.0125858
lowerneck -17.8398 7.53099 -5.28621
upperneck 32.814 14.8033 -3.41724
head 14.1706 5.45832 2.08714
rclavicle -1.39149e-015 -5.24792e-014
rhumerus -38.1797 -7.52598 -70.2355
rradius 35.8602
rwrist 22.5481
rhand -21.9292 5.87399
rfingers 7.12502
rthumb 4.47715 -24.0587
lclavicle -1.39149e-015 -5.24792e-014
lhumerus -42.5286 18.2156 80.1107
lradius 23.5979
lwrist -13.6963
lhand -6.95518 22.1074
lfingers 7.12502
lthumb 18.9139 51.2078
rfemur -22.8092 -5.64578 23.7446
rtibia 26.9583
rfoot -9.77379 -1.96948
rtoes 26.4796
lfemur -11.4242 1.44344 -22.3831
ltibia 40.1521
lfoot 35.9433 -25.2457
ltoes 13.7532
910
root 2.27286 17.8895 5.78625 366.436 38.0554 359.337
lowerback 7.58228 3.25762 6.51379
upperback -0.527037 5.17 4.1294
thorax -4.61964 2.46262 0.0769728
lowerneck -18.1393 7.45181 -5.39832
upperneck 32.8427 14.6645 -3.20442
head 14.215 5.39908 2.18019
rclavicle -7.83212e-014 -6.36111e-015
rhumerus -37.5074 -7.60947 -70.2157
rradius 36.1045
rwrist 22.1171
rhand -22.28 5.84762
rfingers 7.12502
rthumb 4.13836 -24.0919
lclavicle -7.83212e-014 -6.36111e-015
lhumerus -42.06 17.8173 80.6283
lradius 23.7014
lwrist -13.8665
lhand -7.14659 22.2747
lfingers 7.12502
lthumb 18.7298 51.393
rfemur -22.3282 -5.81497 23.8293
rtibia 26.4196
rfoot -9.60863 -1.85424
rtoes 26.705
lfemur -12.1606 1.90766 -22.152
ltibia 41.5989
lfoot 33.6576 -27.1441
ltoes 7.69012
911
root 2.31859 17.9086 5.81773 366.572 37.9838 359.361
lowerback 7.45455 3.23514 6.45271
upperback -0.444889 5.12128 4.22001
thorax -4.477 2.44726 0.220087
lowerneck -18.485 7.40149 -5.4096
upperneck 32.7973 14.5933 -3.17003
head 14.2656 5.35743 2.20086
rclavicle -1.64991e-014 2.38542e-014
rhumerus -36.7098 -7.701 -70.2158
rradius 36.3974
rwrist 21.6877
rhand -22.3145 5.73292
rfingers 7.12502
rthumb 4.10508 -24.2073
lclavicle -1.64991e-014 2.38542e-014
lhumerus -41.5845 17.4184 81.1671
lradius 23.9726
lwrist -13.8931
lhand -6.90431 22.3601
lfingers 7.12502
lthumb 18.9629 51.4557
rfemur -22.0126 -6.01491 23.7542
rtibia 25.8412
rfoot -9.32672 -1.68015
rtoes 26.7478
lfemur -13.0982 2.10275 -22.0683
ltibia 43.1341
lfoot 30.2045 -28.3827
ltoes 1.27779
912
root 2.36317 17.9433 5.85414 366.552 37.9469 359.242
lowerback 7.41795 3.20787 6.49302
upperback -0.433402 5.08932 4.30059
thorax -4.44992 2.43308 0.287446
lowerneck -18.5723 7.37062 -5.2293
upperneck 32.7444 14.5297 -3.30181
head 14.2913 5.32998 2.11523
rclavicle -6.75868e-014 -2.38542e-014
rhumerus -36.1759 -7.84308 -70.2615
rradius 36.9016
rwrist 21.1929
rhand -22.1198 5.51407
rfingers 7.12502
rthumb 4.29309 -24.4224
lclavicle -6.75868e-014 -2.38542e-014
lhumerus -41.2566 17.2208 81.3432
lradius 24.1433
lwrist -14.3393
lhand -6.56243 21.8027
lfingers 7.12502
lthumb 19.2916 50.8658
rfemur -21.5609 -5.94746 23.7741
rtibia 25.2381
rfoot -9.22265 -1.78893
rtoes 26.7134
lfemur -14.022 1.82329 -21.6878
ltibia 44.7297
lfoot 26.2829 -27.869
ltoes -1.56328
913
root 2.40198 17.9539 5.89362 366.367 37.9444 359.105
lowerback 7.5302 3.18607 6.52763
upperback -0.44137 5.08054 4.37933
thorax -4.52675 2.42703 0.343628
lowerneck -18.6142 7.26986 -5.12674
upperneck 32.792 14.3496 -3.29223
head 14.3302 5.25989 2.0771
rclavicle -4.79071e-014 -2.54444e-014
rhumerus -35.8653 -7.99639 -70.2833
rradius 37.5663
rwrist 20.6734
rhand -21.8758 5.10858
rfingers 7.12502
rthumb 4.52874 -24.823
lclavicle -4.79071e-014 -2.54444e-014
lhumerus -40.9922 17.034 81.4033
lradius 24.186
lwrist -14.8892
lhand -6.39355 21.3106
lfingers 7.12502
lthumb 19.454 50.3574
rfemur -20.9453 -5.82109 23.8208
rtibia 24.644
rfoot -9.18866 -1.97567
rtoes 26.8355
lfemur -14.6887 2.11338 -21.414
ltibia 46.2938
lfoot 21.4265 -27.5102
ltoes -5.39208
914
root 2.44455 17.9623 5.93273 366.343 37.9925 359.132
lowerback 7.51419 3.14878 6.46141
upperback -0.445651 5.02611 4.41362
thorax -4.53293 2.4023 0.421839
lowerneck -18.7127 7.1704 -5.07728
upperneck 32.8426 14.1644 -3.20697
head 14.3698 5.18958 2.07816
rclavicle -3.18055e-014 -2.8625e-014
rhumerus -35.5395 -8.32165 -70.2895
rradius 38.1692
rwrist 20.4444
rhand -21.922 4.9038
rfingers 7.12502
rthumb 4.48404 -25.0287
lclavicle -3.18055e-014 -2.8625e-014
lhumerus -40.6755 16.2652 81.8268
lradius 24.4034
lwrist -14.5093
lhand -6.56381 21.4182
lfingers 7.12502
lthumb 19.2903 50.4815
rfemur -20.4012 -5.86025 23.7413
rtibia 24.0495
rfoot -9.06341 -2.06489
rtoes 26.9496
lfemur -15.383 2.33949 -21.2942
ltibia 47.7906
lfoot 16.8308 -26.2383
ltoes -8.75194
915
root 2.48786 17.9758 5.97035 366.27 38.0375 359.066
lowerback 7.49299 3.11226 6.47681
upperback -0.444033 4.97947 4.4543
thorax -4.52351 2.38008 0.461758
lowerneck -18.775 7.09398 -5.04142
upperneck 32.8298 14.0067 -3.12886
head 14.3722 5.13402 2.07868
rclavicle -1.64991e-014 -1.74931e-014
rhumerus -35.1637 -8.59868 -70.3488
rradius 38.677
rwrist 20.2037
rhand -22.1793 4.82684
rfingers 7.12502
rthumb 4.23565 -25.1108
lclavicle -1.64991e-014 -1.74931e-014
lhumerus -40.3101 15.237 82.4198
lradius 24.7894
lwrist -13.793
lhand -6.71277 21.9348
lfingers 7.12502
lthumb 19.147 51.0123
rfemur -19.9437 -5.78517 23.7237
rtibia 23.6096
rfoot -9.00805 -2.23926
rtoes 26.7951
lfemur -16.1063 2.49758 -21.0688
ltibia 49.1774
lfoot 13.0359 -24.5065
ltoes -11.5953
916
root 2.5301 17.9931 6.00338 366.135 38.0321 358.899
lowerback 7.57137 3.06292 6.58223
upperback -0.482347 4.93837 4.51162
thorax -4.60647 2.35544 0.461901
lowerneck -18.8101 7.01736 -5.06881
upperneck 32.858 13.8588 -3.00627
head 14.3774 5.08056 2.10777
rclavicle -3.29983e-014 -2.8625e-014
rhumerus -34.8171 -8.65696 -70.4602
rradius 39.1956
rwrist 19.8869
rhand -22.5106 4.91571
rfingers 7.12502
rthumb 3.91572 -25.0281
lclavicle -3.29983e-014 -2.8625e-014
lhumerus -39.9976 15.0903 82.469
lradius 24.945
lwrist -14.1857
lhand -6.55735 21.9124
lfingers 7.12502
lthumb 19.2965 50.975
rfemur -19.4758 -5.65372 23.773
rtibia 23.1849
rfoot -8.98003 -2.37867
rtoes 27.0184
lfemur -16.865 2.55156 -20.7545
ltibia 50.4632
lfoot 9.43483 -23.0564
ltoes -15.0485
917
root 2.57521 18.0082 6.03733 366.135 37.9707 358.894
lowerback 7.63733 3.04153 6.5691
upperback -0.569743 4.92375 4.52722
thorax -4.73886 2.3439 0.480338
lowerneck -18.8187 6.91005 -5.08495
upperneck 32.9553 13.684 -2.91253
head 14.4135 5.01017 2.12096
rclavicle 1.30403e-013 3.65764e-014
rhumerus -34.6055 -8.71551 -70.548
rradius 39.7645
rwrist 19.6703
rhand -22.8308 5.06025
rfingers 7.12502
rthumb 3.60654 -24.889
lclavicle 1.30403e-013 3.65764e-014
lhumerus -39.7366 15.3373 82.2106
lradius 24.8297
lwrist -14.8562
lhand -6.52947 21.3892
lfingers 7.12502
lthumb 19.3233 50.4492
rfemur -19.0572 -5.65016 23.7019
rtibia 22.779
rfoot -8.87271 -2.38275
rtoes 26.884
lfemur -17.6141 2.56882 -20.5838
ltibia 51.6521
lfoot 6.14207 -21.258
ltoes -16.3695
